<svg viewBox="0 0 70 76" version="1.1" xmlns="http://www.w3.org/2000/svg" xmlns:xlink="http://www.w3.org/1999/xlink">
    <title>bobbie</title>
    <g id="Page-1" stroke="none" stroke-width="1" fill="none" fill-rule="evenodd">
        <g id="Desktop" transform="translate(-199.000000, -29.000000)" fill-rule="nonzero">
            <g id="bobbie" transform="translate(199.000000, 29.000000)">
                <path d="M25.4,46.8 C26.4,46.8 27.2,47.3 27.2,46.3 C27.2,45.3 26.4,44.5 25.4,44.5 C24.4,44.5 23.6,45.3 23.6,46.3 C23.6,47.3 24.4,46.8 25.4,46.8 Z" id="Shape"></path>
                <path d="M31.3,49.2 L19.5,49.2 C18.8,49.2 18.2,49.8 18.2,50.5 C18.2,54.3 21.4,57.3 25.4,57.3 C29.4,57.3 32.6,54.2 32.6,50.5 C32.6,49.8 32,49.2 31.3,49.2 Z M25.4,54.8 C23.4,54.8 21.6,53.6 21,51.9 L29.7,51.9 C29.2,53.5 27.4,54.8 25.4,54.8 Z" id="Shape"></path>
                <path d="M66.9,19.8 C64.9,17.2 60.8,14.3 52.7,15.3 C51.2,14.1 49.3,13.5 47.3,13.9 C47.2,13.9 47.1,13.9 47.1,14 C45.2,10.1 42.2,6.7 38.4,4.4 C34.5,2 29.9,0.7 25.3,0.7 C24.9,0.7 24.4,0.7 24,0.7 C16.5,1.1 9.7,4.9 5.4,11.2 C0.9,17.7 -0.2,25.7 2.3,33.2 L3.7,37.5 C1.5,38.4 3.55271368e-15,40.6 3.55271368e-15,43 C3.55271368e-15,46.2 2.5,48.8 5.7,49 C5.9,51.5 6.8,53.9 8.4,55.9 L14,63 C14.7,63.8 18.4,68 22,68 L29,68 C32.6,68 36.3,63.8 37,62.9 L42.5,55.9 C44,53.9 45,51.5 45.2,49 C48.3,48.8 50.8,46.2 50.8,43 C50.8,40.5 49.2,38.3 47,37.4 L48.6,32.6 C49.2,30.7 49.6,28.8 49.8,26.9 C49.8,26.9 49.8,26.9 49.8,26.9 C49.9,26.9 50,26.9 50.1,26.9 C51.6,26.6 52.9,25.8 53.8,24.7 C55.5,25.2 58.9,27 58.4,33.4 C58.2,35.7 57.4,38.9 56.6,42.3 C53.7,53.2 50,68.1 62,75.1 C62.3,75.3 62.6,75.3 62.9,75.3 C63.4,75.3 63.9,75.1 64.2,74.7 C64.7,74.1 64.8,73.1 64.2,72.5 C64.1,72.4 58.6,65.1 65.9,47 C70.8,34.9 71.2,25.2 66.9,19.8 Z M8.4,13.2 C12.1,7.8 17.9,4.5 24.3,4.2 C24.7,4.2 25,4.2 25.4,4.2 C29.4,4.2 33.3,5.3 36.7,7.4 C44.7,12.3 48.3,22.5 45.2,31.7 L45.1,31.9 L45.1,29.6 C45.1,26.3 44.3,23 42.7,20.1 C42.6,20 40.9,17 38.4,15.3 C34.2,12.5 29.9,13.3 29.7,13.3 C29.1,13.4 28.6,13.8 28.4,14.3 C28.2,14.8 28.2,15.5 28.5,15.9 L31.3,20.2 C19.9,22.4 15.8,16.6 15.6,16.3 C15.3,15.9 14.9,15.6 14.4,15.5 C13.9,15.4 13.4,15.5 13,15.8 L11,17.3 C11,17.3 10.9,17.3 10.9,17.4 C8.1,19.9 6.3,23.3 5.8,26.9 C5.7,27.7 5.6,28.5 5.6,29.4 L5.6,32.1 L5.5,31.9 C3.6,25.7 4.5,18.8 8.4,13.2 Z M34.6,30.3 C30.5,30.3 27,33.3 26.3,37.2 C26,37.1 25.7,37.1 25.4,37.1 C25.1,37.1 24.8,37.1 24.5,37.2 C23.8,33.3 20.3,30.3 16.2,30.3 C13.3,30.3 10.7,31.8 9.2,34.1 L9.2,29.6 C9.2,28.9 9.2,28.2 9.3,27.6 C9.6,24.8 11,22.3 13.2,20.3 L13.8,19.8 C16.2,22.2 22.5,26.4 34.5,23.2 C35,23.1 35.5,22.7 35.7,22.1 C35.9,21.6 35.8,21 35.5,20.5 L33.3,17 C34.3,17.2 35.4,17.6 36.5,18.3 C38.3,19.5 39.7,21.9 39.7,21.9 C41,24.3 41.7,26.9 41.7,29.7 L41.7,34.2 C40.1,31.8 37.5,30.3 34.6,30.3 Z M40.4,38.8 C40.4,42 37.8,44.6 34.6,44.6 C31.4,44.6 28.8,42 28.8,38.8 C28.8,35.6 31.4,33 34.6,33 C37.8,33 40.4,35.6 40.4,38.8 Z M22.1,38.8 C22.1,42 19.5,44.6 16.3,44.6 C13.1,44.6 10.5,42 10.5,38.8 C10.5,35.6 13.1,33 16.3,33 C19.5,33 22.1,35.6 22.1,38.8 Z M3.6,43.1 C3.6,41.8 4.5,40.8 5.7,40.6 L5.7,45.6 C4.5,45.4 3.6,44.3 3.6,43.1 Z M39.6,53.8 L34.2,60.8 C32.9,62.4 30.4,64.6 28.9,64.6 L21.9,64.6 C20.5,64.6 17.9,62.3 16.7,60.9 L11.2,53.9 C9.9,52.3 9.2,50.2 9.2,48.2 L9.2,43.5 C10.7,45.8 13.3,47.3 16.2,47.3 C20.4,47.3 23.9,44.2 24.5,40.1 L24.5,40.1 C24.9,39.7 25.7,39.7 26.1,40.1 C26.1,40.1 26.1,40.1 26.1,40.1 C26.7,44.1 30.2,47.3 34.4,47.3 C37.3,47.3 39.9,45.8 41.4,43.5 L41.4,48.2 C41.6,50.2 40.9,52.2 39.6,53.8 Z M45.1,45.6 L45.1,40.6 C46.3,40.8 47.2,41.8 47.2,43.1 C47.2,44.3 46.3,45.4 45.1,45.6 Z M49.6,23.5 C49.5,21.4 49.1,19.3 48.4,17.3 C49.9,17.2 51.3,18.3 51.6,19.9 C51.8,20.7 51.6,21.6 51.1,22.3 C50.8,22.9 50.3,23.3 49.6,23.5 Z M58.9,67 C55.6,60.5 57.9,51.1 59.9,43.3 C60.8,39.8 61.6,36.5 61.8,33.9 C62.4,25.6 57.9,22.7 55.2,21.7 C55.3,20.9 55.3,20.1 55.2,19.3 C55.2,19.1 55.1,18.9 55.1,18.7 C59.3,18.5 62.4,19.6 64.3,22 C67.7,26.4 67.2,35 62.8,45.7 C58.8,55.3 58.3,62.3 58.9,67 Z" id="Shape"></path>
                <path d="M12.5,37.3 C12,37.8 12,38.6 12.5,39.2 C13,39.8 13.8,39.7 14.4,39.2 C14.7,38.9 15.1,38.7 15.4,38.6 C15,38.9 14.7,39.3 14.7,39.9 C14.7,40.8 15.4,41.4 16.2,41.4 C17,41.4 17.7,40.7 17.7,39.9 C17.7,39.4 17.4,38.9 17,38.6 C17.4,38.7 17.7,38.9 18,39.2 C18.3,39.5 18.6,39.6 18.9,39.6 C19.2,39.6 19.6,39.5 19.8,39.2 C20.3,38.7 20.3,37.9 19.8,37.3 C18,35.3 14.6,35.3 12.5,37.3 Z" id="Shape"></path>
                <path d="M30.8,37.3 C30.3,37.8 30.3,38.6 30.8,39.2 C31.3,39.8 32.1,39.7 32.7,39.2 C33,38.9 33.4,38.7 33.7,38.6 C33.3,38.9 33,39.3 33,39.9 C33,40.8 33.7,41.4 34.5,41.4 C35.4,41.4 36,40.7 36,39.9 C36,39.4 35.7,38.9 35.3,38.6 C35.7,38.7 36,38.9 36.3,39.2 C36.6,39.5 36.9,39.6 37.2,39.6 C37.5,39.6 37.9,39.5 38.1,39.2 C38.6,38.7 38.6,37.9 38.1,37.3 C36.3,35.3 32.9,35.3 30.8,37.3 Z" id="Shape"></path>
            </g>
        </g>
    </g>
</svg>