<svg viewBox="0 0 58 76" version="1.1" xmlns="http://www.w3.org/2000/svg" xmlns:xlink="http://www.w3.org/1999/xlink">
    <title>fred</title>
    <g id="Page-1" stroke="none" stroke-width="1" fill="none" fill-rule="evenodd">
        <g id="Desktop" transform="translate(-290.000000, -29.000000)" fill-rule="nonzero">
            <g id="fred" transform="translate(290.000000, 29.000000)">
                <path d="M31.5,62.9 C31.1,63.3 30.1,63.6 29.1,63.6 C28.1,63.6 27,63.2 26.7,62.8 C26.1,62.3 25.3,62.3 24.7,62.8 C24.2,63.4 24.2,64.2 24.7,64.8 C25.7,65.8 27.4,66.4 29.1,66.4 C30.7,66.4 32.3,65.8 33.3,65 C33.9,64.5 33.9,63.6 33.4,63 C32.9,62.4 32,62.4 31.5,62.9 Z" id="Shape"></path>
                <path d="M16.9,32.9 L23,32.9 L25.7,35.3 L25.7,46.6 C25.7,48.7 27.4,50.3 29.4,50.3 C30.4,50.3 31.3,49.9 32,49.2 C32.5,48.7 32.5,47.8 32,47.2 C31.5,46.7 30.6,46.7 30,47.2 C29.8,47.4 29.6,47.5 29.3,47.5 C28.8,47.5 28.4,47.1 28.4,46.6 L28.4,34.6 C28.4,34.2 28.2,33.8 27.9,33.5 L24.3,30.4 C24,30.2 23.7,30.1 23.4,30.1 L16.7,30.1 C15.9,30.1 15.3,30.7 15.3,31.5 C15.3,32.3 16.1,32.9 16.9,32.9 Z" id="Shape"></path>
                <path d="M53.3,31.6 C54.9,29.3 55.7,26.3 55.5,23.3 C55.3,20.5 54.1,18 52.3,16.4 C52.1,12.4 50.4,8.6 47.5,5.7 C44.2,2.4 39.6,0.6 34.5,0.6 C27.9,0.6 23,2.6 19.5,6.6 C16.7,6.8 8.2,8.1 4.5,14.4 C1.9,18.8 2.3,24.5 5.7,31.3 C2.6,31.7 0.1,34.4 0.1,37.6 L0.1,41.7 C0.1,45.2 2.9,48.1 6.5,48.1 C6.5,48.1 6.5,48.1 6.5,48.1 L6.5,54.2 C6.5,56.4 7.2,58.5 8.6,60.2 L15.9,69.6 C16.4,70.2 20.8,75.3 25,75.3 L33,75.3 C37.1,75.3 41.5,70.2 42.1,69.5 L49.4,60.2 C50.7,58.5 51.5,56.3 51.5,54.1 L51.5,48 C51.5,48 51.5,48 51.5,48 C55,48 57.9,45.2 57.9,41.6 L57.9,37.5 C57.8,34.8 55.9,32.4 53.3,31.6 Z M7.8,16.4 C11.1,10.8 20.5,10.4 20.6,10.4 C21.1,10.4 21.7,10.1 22,9.7 C24.8,6.1 28.8,4.4 34.6,4.4 C39.8,4.4 43.1,6.6 44.9,8.4 C47.3,10.8 48.6,14 48.6,17.4 C48.6,18 48.9,18.6 49.4,18.9 C50.8,19.8 51.6,21.5 51.8,23.6 C51.9,25.4 51.5,27.2 50.7,28.7 C48.2,19.1 39.4,12 29,12 C28.2,12 27.6,12.5 27.3,13.2 C24.1,21 18.2,22.7 13.7,22.9 C11.1,23 8.9,24.4 7.7,26.4 C6.3,22.2 6.3,18.9 7.8,16.4 Z M6.6,44.4 C5.2,44.4 4,43.2 4,41.8 L4,37.7 C4,36.3 5.2,35.1 6.6,35.1 C6.6,35.1 6.6,35.1 6.6,35.1 L6.6,44.4 C6.6,44.4 6.6,44.4 6.6,44.4 Z M47.7,54.2 C47.7,55.6 47.2,56.9 46.4,58 L39.2,67.3 C37.7,69.1 34.8,71.7 33,71.7 L25,71.7 C23.3,71.7 20.3,69.1 18.8,67.4 L11.6,58.1 C10.8,57 10.3,55.7 10.3,54.3 L10.3,30.3 C10.3,28.3 11.9,26.7 13.8,26.7 C18.1,26.6 25.9,24.9 30.2,15.9 C40,16.5 47.7,24.7 47.7,34.6 L47.7,54.2 L47.7,54.2 Z M54.1,41.7 C54.1,43.1 52.9,44.3 51.5,44.3 C51.5,44.3 51.5,44.3 51.5,44.3 L51.5,35 C51.5,35 51.5,35 51.5,35 C52.9,35 54.1,36.2 54.1,37.6 L54.1,41.7 Z" id="Shape"></path>
                <circle id="Oval" cx="19.2" cy="36.4" r="1.9"></circle>
                <circle id="Oval" cx="38.8" cy="36.4" r="1.9"></circle>
                <path d="M39.7,51.1 C39.3,50.5 38.4,50.3 37.8,50.8 C37.2,51.2 37,52.1 37.5,52.7 L38.1,53.6 C36,56.2 32.6,57.8 29,57.8 C25.4,57.8 22.1,56.2 19.9,53.6 L20.5,52.7 C20.9,52.1 20.8,51.2 20.2,50.8 C19.6,50.4 18.7,50.5 18.3,51.1 L16,54.4 C15.6,55 15.7,55.9 16.3,56.3 C16.5,56.5 16.8,56.6 17.1,56.6 C17.5,56.6 18,56.4 18.2,56 L18.2,56 C20.9,58.9 24.8,60.6 28.9,60.6 C33.1,60.6 37,58.9 39.6,56 L39.6,56.1 C39.9,56.5 40.3,56.7 40.7,56.7 C41,56.7 41.3,56.6 41.5,56.4 C42.1,56 42.3,55.1 41.8,54.5 L39.7,51.1 Z" id="Shape"></path>
            </g>
        </g>
    </g>
</svg>