<svg viewBox="0 0 70 76" version="1.1" xmlns="http://www.w3.org/2000/svg" xmlns:xlink="http://www.w3.org/1999/xlink">
    <title>jackie</title>
    <g id="Page-1" stroke="none" stroke-width="1" fill="none" fill-rule="evenodd">
        <g id="Desktop" transform="translate(-506.000000, -234.000000)" fill-rule="nonzero">
            <g id="jackie" transform="translate(506.000000, 234.000000)">
                <path d="M63.4,69 C60.9,67.4 59.9,65.4 60.3,63 C60.7,60.7 61.9,58.5 63.6,56.7 C67.4,52.8 69.3,48.4 69.1,43.7 C68.9,37.7 65.5,32.3 62.1,29.1 C62.1,21.5 59.1,14.1 53.8,8.7 C48.7,3.5 41.9,0.6 34.8,0.6 C27.7,0.6 20.9,3.5 15.8,8.7 C10.6,14 7.6,21.4 7.5,29.1 C4.2,32.4 0.7,37.8 0.5,43.7 C0.4,48.4 2.2,52.8 6,56.7 C7.8,58.5 8.9,60.7 9.3,63 C9.7,65.4 8.7,67.4 6.2,69 C5.7,69.3 5.4,69.8 5.4,70.4 C5.4,71 5.6,71.5 6.1,71.9 C6.3,72.1 11.8,76.2 18.7,75.1 C23.1,74.4 26.9,71.8 30.2,67.4 C30.5,67.4 30.7,67.5 31,67.5 L38.5,67.5 C38.8,67.5 39,67.5 39.3,67.4 C42.6,71.9 46.4,74.5 50.8,75.2 C51.6,75.3 52.4,75.4 53.1,75.4 C58.8,75.4 63.1,72.2 63.3,72 C63.8,71.7 64,71.1 64,70.5 C64,69.9 63.9,69.4 63.4,69 Z M13.9,45.4 C13,45.4 12.3,44.7 12.3,43.8 L12.3,40.8 C12.3,39.9 13,39.2 13.9,39.2 C13.9,39.2 13.9,39.2 13.9,39.2 L13.9,45.4 C13.9,45.4 13.9,45.4 13.9,45.4 Z M47.6,27.5 C49.5,27.3 51.1,27.1 51.7,27.6 C52,27.9 52.6,28.9 52.6,32 L52.6,34.5 C51.9,34.5 51.2,34.7 50.5,35 C49.8,32.7 47.7,30.9 45.1,30.9 L43.3,30.9 C40.8,30.9 38.7,32.5 38,34.7 C37.1,34.2 36,34 34.9,34 C33.8,34 32.8,34.2 31.8,34.7 C31.1,32.5 29,30.9 26.5,30.9 L24.7,30.9 C22.1,30.9 20,32.6 19.3,35 C18.6,34.7 17.9,34.5 17.2,34.5 L17.2,32 C17.2,28.3 17.6,25.3 18.5,22.8 C19.1,21 20.7,19.7 22.5,19.3 C22.9,19.2 23.3,19.2 23.7,19.2 C25,19.2 26.3,19.7 27.2,20.7 C35.6,28.9 42.8,28.1 47.6,27.5 Z M56.1,39.2 C57,39.2 57.7,39.9 57.7,40.8 L57.7,43.8 C57.7,44.7 57,45.4 56.1,45.4 L56.1,39.2 Z M48.1,36.6 C48.1,38.2 46.8,39.6 45.1,39.6 L43.3,39.6 C41.7,39.6 40.3,38.3 40.3,36.6 C40.3,34.9 41.6,33.6 43.3,33.6 L45.1,33.6 C46.7,33.7 48.1,35 48.1,36.6 Z M29.6,36.6 C29.6,38.2 28.3,39.6 26.6,39.6 L24.8,39.6 C23.2,39.6 21.8,38.3 21.8,36.6 C21.8,34.9 23.1,33.6 24.8,33.6 L26.6,33.6 C28.3,33.7 29.6,35 29.6,36.6 Z M17.4,37.2 C18.1,37.3 18.8,37.6 19.3,38.1 C19.3,38.1 19.4,38.2 19.4,38.2 C20.1,40.5 22.2,42.2 24.8,42.2 L26.6,42.2 C28.3,42.2 29.8,41.4 30.9,40.2 L30.9,46.8 C30.9,47.1 31,47.5 31.3,47.7 C32.3,48.7 33.6,49.2 35,49.2 C36.3,49.2 37.6,48.7 38.7,47.7 C39.2,47.2 39.2,46.4 38.7,45.8 C38.2,45.3 37.4,45.3 36.8,45.8 C35.9,46.7 34.6,46.8 33.6,46.1 L33.6,36.9 C34.1,36.7 34.6,36.6 35.1,36.6 C36.2,36.6 37.2,37 38,37.7 C38.6,40.2 40.8,42 43.4,42 L45.2,42 C47.7,42 49.9,40.3 50.6,38 C50.6,38 50.7,37.9 50.7,37.9 C51.2,37.4 51.9,37 52.6,37 L52.6,47.3 C52.6,48.6 52.2,49.8 51.4,50.8 L44.6,59.5 C43.5,60.8 40.6,63.6 38.8,63.6 L31.3,63.6 C29.7,63.6 26.9,61.2 25.6,59.5 L18.8,50.7 C18,49.7 17.6,48.4 17.6,47.2 L17.6,37.2 L17.4,37.2 Z M56.4,71.4 C54.2,71.8 52.4,71.4 51.2,70.3 C50,69.2 49.7,67.3 50.1,64.9 C50.2,64.2 49.8,63.5 49.1,63.4 C48.4,63.3 47.7,63.7 47.6,64.4 C47.1,67.2 47.5,69.1 48.2,70.5 C46.3,69.5 44.6,68 42.9,66 C45.2,64.5 47,62.4 47.3,62 L54.1,53.2 C55.1,51.9 55.7,50.4 55.9,48.9 C55.9,48.9 56,48.9 56,48.9 C58.8,48.9 61.1,46.6 61.1,43.8 L61.1,40.8 C61.1,38 58.8,35.7 56,35.7 L56,32.1 C56,28.5 55.4,26.3 53.9,25 C52.7,23.9 51.3,23.7 49.6,23.8 C49.6,23.8 49.6,23.8 49.6,23.8 C42.6,23.8 38.1,20.6 35.7,13.6 C35.4,12.7 34.4,12.2 33.5,12.5 C32.6,12.8 32.1,13.8 32.4,14.7 C33.7,18.5 35.7,21.5 38.2,23.5 C35.6,22.7 32.8,21.1 29.8,18.2 C27.7,16.1 24.8,15.3 21.8,15.9 C18.8,16.6 16.3,18.7 15.2,21.6 C14.2,24.4 13.7,27.9 13.7,31.9 L13.7,35.5 C13.7,35.5 13.7,35.5 13.7,35.5 C10.9,35.5 8.6,37.8 8.6,40.6 L8.6,43.6 C8.6,46.4 10.9,48.7 13.7,48.7 C13.7,48.7 13.8,48.7 13.8,48.7 C14,50.3 14.7,51.8 15.7,53 L22.6,61.8 C22.9,62.2 24.7,64.3 27,65.7 C25.3,67.8 23.5,69.4 21.5,70.3 C22.2,68.9 22.7,66.9 22.2,64.1 C22.1,63.4 21.4,62.9 20.7,63.1 C20,63.2 19.5,63.9 19.7,64.6 C20.2,67 19.8,68.8 18.6,70 C17.6,71 15.9,71.5 13.9,71.2 C12.6,70.9 11.4,70.4 10.5,70 C13.2,67.3 13.4,64.3 13,62.1 C12.5,59.1 11,56.3 8.7,54 C5.6,50.8 4,47.3 4.2,43.5 C4.4,38.3 7.7,33.4 10.6,30.8 C11,30.5 11.2,30 11.2,29.5 C11.1,22.5 13.7,15.7 18.4,10.9 C22.8,6.4 28.7,3.9 34.9,3.9 C41.1,3.9 46.9,6.4 51.4,10.9 C56.1,15.7 58.8,22.5 58.6,29.5 C58.6,30 58.8,30.5 59.2,30.8 C62.1,33.4 65.4,38.3 65.6,43.5 C65.7,47.2 64.2,50.8 61.1,54 C58.9,56.3 57.4,59.1 56.8,62.1 C56.4,64.3 56.6,67.3 59.3,70 C58.6,70.7 57.6,71.1 56.4,71.4 Z" id="Shape"></path>
                <path d="M36.2,56.9 C36,57 35.5,57.2 35,57.2 C34.5,57.2 34,57 33.8,56.9 C33.3,56.4 32.5,56.4 31.9,56.9 C31.4,57.4 31.4,58.3 31.9,58.8 C32.6,59.5 33.8,59.9 34.9,59.9 C36,59.9 37.1,59.5 37.8,58.9 C38.3,58.4 38.4,57.6 37.9,57 C37.5,56.5 36.7,56.4 36.2,56.9 Z" id="Shape"></path>
                <circle id="Oval" cx="25.7" cy="36.6" r="1.8"></circle>
                <circle id="Oval" cx="44.2" cy="36.6" r="1.8"></circle>
                <path d="M35,55.1 C37.6,55.1 40.1,54.3 41.7,52.8 C42.2,52.3 42.3,51.5 41.8,50.9 C41.3,50.4 40.5,50.3 39.9,50.8 C38.9,51.8 37,52.4 35,52.4 C33,52.4 31.2,51.8 30.1,50.9 C29.6,50.4 28.7,50.4 28.2,51 C27.7,51.5 27.8,52.4 28.3,52.9 C29.9,54.3 32.3,55.1 35,55.1 Z" id="Shape"></path>
                <path d="M21.6,27 C21,27.4 20.8,28.2 21.2,28.8 C21.4,29.2 21.9,29.4 22.3,29.4 C22.5,29.4 22.8,29.3 23,29.2 C24.5,28.3 27.4,28.3 28.9,29.2 C29.5,29.6 30.3,29.4 30.7,28.8 C31.1,28.2 30.9,27.4 30.3,27 C29.1,26.3 27.6,25.9 26,25.9 C24.3,25.9 22.8,26.3 21.6,27 Z" id="Shape"></path>
            </g>
        </g>
    </g>
</svg>