<svg width="70px" height="76px" viewBox="0 0 70 76" version="1.1" xmlns="http://www.w3.org/2000/svg" xmlns:xlink="http://www.w3.org/1999/xlink">
    <title>jackson</title>
    <g id="Page-1" stroke="none" stroke-width="1" fill="none" fill-rule="evenodd">
        <g id="Desktop" transform="translate(-249.000000, -234.000000)" fill-rule="nonzero">
            <g id="jackson" transform="translate(249.000000, 234.000000)">
                <circle id="Oval" cx="26.3" cy="46.5" r="2.1"></circle>
                <circle id="Oval" cx="43.7" cy="46.5" r="2.1"></circle>
                <path d="M31.4,43.7 L31.4,52.2 C31.4,54 32.8,55.6 34.5,55.7 C34.6,55.7 34.7,55.7 34.8,55.7 C35.7,55.7 36.6,55.3 37.2,54.7 C37.7,54.2 37.7,53.4 37.2,52.9 C36.7,52.4 35.9,52.4 35.4,52.9 C35.3,53 35.1,53.2 34.7,53.1 C34.3,53.1 33.9,52.6 33.9,52.1 L33.9,43.6 C33.9,40.5 31.4,37.9 28.2,37.9 L23.5,37.9 C22.8,37.9 22.2,38.5 22.2,39.2 C22.2,39.9 22.8,40.5 23.5,40.5 L28.2,40.5 C30,40.6 31.4,42 31.4,43.7 Z" id="Shape"></path>
                <path d="M46,38 L40.5,38 C39.8,38 39.2,38.6 39.2,39.3 C39.2,40 39.8,40.6 40.5,40.6 L46,40.6 C46.7,40.6 47.3,40 47.3,39.3 C47.2,38.6 46.7,38 46,38 Z" id="Shape"></path>
                <path d="M40.6,59.5 L29.4,59.5 C28.7,59.5 28.1,60.1 28.1,60.8 C28.1,62.5 30.8,65.8 35,65.8 C39.5,65.8 41.9,62.3 41.9,60.8 C41.9,60.1 41.3,59.5 40.6,59.5 Z M35,63.3 C33.5,63.3 32.4,62.7 31.7,62.1 L38.4,62.1 C37.7,62.7 36.6,63.3 35,63.3 Z" id="Shape"></path>
                <path d="M35,0.7 C16.1,0.7 0.7,15.5 0.7,33.7 C0.7,44.9 6.5,55.3 16.3,61.4 C16.3,61.4 16.4,61.4 16.4,61.5 C16.4,61.6 16.5,61.6 16.5,61.7 L23.1,70.2 C23.5,70.7 27.5,75.4 31.3,75.4 L38.6,75.4 C42.4,75.4 46.4,70.7 46.8,70.2 L53.4,61.7 C53.4,61.6 53.5,61.6 53.5,61.5 C53.5,61.5 53.6,61.5 53.6,61.4 C63.4,55.3 69.2,44.9 69.2,33.8 C69.3,15.5 53.9,0.7 35,0.7 Z M14.7,47.9 C13.4,47.9 12.3,46.8 12.3,45.5 C12.3,44.2 13.4,43.1 14.7,43.1 L14.7,47.9 Z M44.2,67.9 C42.8,69.6 40.2,71.9 38.6,71.9 L31.3,71.9 C29.7,71.9 27.1,69.6 25.8,68 L19.2,59.5 C18.4,58.5 18,57.3 18,56.1 L18,33.3 C18,30.9 18.5,30.2 18.7,30.1 C18.9,30 19.2,29.9 19.5,29.9 C20.7,29.9 22.6,30.5 24.3,31.1 C27.4,32 31,33.2 35,33.2 C39,33.2 42.6,32 45.6,31.1 C47.9,30.4 50.5,29.6 51.2,30.1 C51.4,30.3 51.9,30.9 51.9,33.3 L51.9,56.1 C51.9,57.3 51.5,58.5 50.7,59.5 L44.2,67.9 Z M55.3,43.1 C56.6,43.1 57.7,44.2 57.7,45.5 C57.7,46.8 56.6,47.9 55.3,47.9 L55.3,43.1 Z M55.3,56 L55.3,51.3 C58.5,51.3 61.1,48.7 61.1,45.5 C61.1,42.3 58.5,39.7 55.3,39.7 L55.3,33.4 C55.3,31.5 55.1,28.8 53.2,27.4 C51,25.8 48,26.8 44.5,27.9 C41.6,28.8 38.4,29.8 34.9,29.8 C31.4,29.8 28.2,28.8 25.3,27.9 C21.8,26.8 18.8,25.8 16.6,27.4 C14.7,28.8 14.5,31.5 14.5,33.4 L14.5,39.7 C11.3,39.7 8.7,42.3 8.7,45.5 C8.7,48.7 11.3,51.3 14.5,51.3 L14.5,56 C8,50.4 4,42.3 4,33.7 C4,17.4 17.9,4.1 35,4.1 C52.1,4.1 66,17.4 66,33.7 C66,42.3 62,50.4 55.3,56 Z" id="Shape"></path>
            </g>
        </g>
    </g>
</svg>