<svg width="62px" height="74px" viewBox="0 0 62 74" version="1.1" xmlns="http://www.w3.org/2000/svg" xmlns:xlink="http://www.w3.org/1999/xlink">
    <title>jeremy</title>
    <g id="Page-1" stroke="none" stroke-width="1" fill="none" fill-rule="evenodd">
        <g id="Desktop" transform="translate(-65.000000, -126.000000)" fill-rule="nonzero">
            <g id="jeremy" transform="translate(65.000000, 126.000000)">
                <path d="M55.1,26.6 C55.1,26.6 55.1,26.6 55.1,26.6 L55.1,25 C55.1,18.6 52.6,12.8 48.5,8.5 L52.1,6.9 C52.9,6.6 53.2,5.7 52.9,4.9 C52.6,4.1 51.7,3.8 50.9,4.1 L47.7,5.5 L49.3,2.4 C49.7,1.7 49.4,0.8 48.7,0.4 C48,-3.27515792e-15 47.1,0.3 46.7,1 L44.6,5.1 C40.7,2.5 36.1,0.9 31,0.9 C17.7,0.9 6.9,11.7 6.9,25 L6.9,26.6 C6.9,26.6 6.9,26.6 6.9,26.6 C3.1,26.6 0.1,29.7 0.1,33.4 L0.1,37.8 C0.1,41.6 3.2,44.6 6.9,44.6 C6.9,44.6 6.9,44.6 6.9,44.6 L6.9,51.1 C6.9,53.4 7.7,55.8 9.1,57.6 L17,67.7 C17.5,68.3 22.2,73.9 26.7,73.9 L35.3,73.9 C39.8,73.9 44.5,68.4 45.1,67.7 L52.9,57.7 C54.3,55.9 55.1,53.6 55.1,51.2 L55.1,44.7 C55.1,44.7 55.1,44.7 55.1,44.7 C58.9,44.7 61.9,41.6 61.9,37.9 L61.9,33.5 C61.9,29.6 58.8,26.6 55.1,26.6 Z M45.1,10.7 C47.5,13 49.2,15.9 50.2,19.2 C46,20.4 41.4,19 38.5,15.8 C40.8,14.3 43.1,12.6 45.1,10.7 Z M31,4.9 C35,4.9 38.8,6.1 42,8.2 C39.8,10.2 37.4,11.9 34.8,13.3 C34.7,13.3 34.6,13.4 34.5,13.4 C34.5,13.4 34.4,13.5 34.4,13.5 C27.6,17.1 20,18.5 12.5,17.2 C15.5,10 22.7,4.9 31,4.9 Z M6.9,40.6 C5.3,40.6 4.1,39.3 4.1,37.8 L4.1,33.4 C4.1,31.8 5.4,30.6 6.9,30.6 C6.9,30.6 6.9,30.6 6.9,30.6 L6.9,40.6 C6.9,40.6 6.9,40.6 6.9,40.6 Z M51.1,51.1 C51.1,52.6 50.6,54 49.7,55.1 L42,65.1 C40.7,66.6 37.4,69.8 35.4,69.8 L26.8,69.8 C25,69.8 21.8,67 20.2,65.1 L12.4,55.1 C11.5,54 11,52.5 11,51.1 L11,29.3 C16.1,29.3 20.3,31 23.1,34.1 C25.9,37.2 27.2,41.7 26.7,46.9 C26.7,46.9 26.7,47 26.7,47.1 C26.7,47.4 26.8,47.7 26.9,47.9 C27.8,49.2 29.5,50.1 31.1,50.1 C32.6,50.1 34.2,49.3 35.1,48.1 C35.6,47.4 35.5,46.5 34.8,46 C34.1,45.5 33.2,45.6 32.7,46.3 C32.3,46.8 31.6,47.1 31.1,47.1 C30.6,47.1 30.1,46.9 29.7,46.5 C30.1,40.7 28.6,35.7 25.3,32.1 C21.9,28.4 16.9,26.4 11,26.3 L11,24.9 C11,23.6 11.1,22.3 11.4,21.1 C13.6,21.5 15.9,21.7 18.1,21.7 C23.9,21.7 29.7,20.3 35.1,17.7 C38.1,21.5 42.6,23.6 47.3,23.6 C48.6,23.6 49.8,23.4 51.1,23.1 C51.2,23.7 51.2,24.3 51.2,24.9 L51.2,51.1 L51.1,51.1 Z M57.9,37.8 C57.9,39.4 56.6,40.6 55.1,40.6 C55.1,40.6 55.1,40.6 55.1,40.6 L55.1,30.6 C55.1,30.6 55.1,30.6 55.1,30.6 C56.7,30.6 57.9,31.9 57.9,33.4 L57.9,37.8 Z" id="Shape"></path>
                <circle id="Oval" cx="19.6" cy="37.5" r="2.1"></circle>
                <circle id="Oval" cx="42.4" cy="37.5" r="2.1"></circle>
                <path d="M46,30 C43.3,29.1 40.6,29.5 38.3,31.1 C37.6,31.6 37.5,32.5 38,33.2 C38.3,33.6 38.8,33.8 39.2,33.8 C39.5,33.8 39.8,33.7 40.1,33.5 C41.6,32.4 43.3,32.1 45.1,32.8 C45.9,33.1 46.7,32.7 47,31.9 C47.2,31.1 46.8,30.3 46,30 Z" id="Shape"></path>
                <path d="M34,56.8 C33.6,57.2 32.5,57.6 31.4,57.6 C30.3,57.6 29.2,57.2 28.8,56.8 C28.2,56.2 27.3,56.2 26.7,56.8 C26.1,57.4 26.1,58.3 26.7,58.9 C27.8,59.9 29.6,60.6 31.4,60.6 C33.1,60.6 34.9,60 35.9,59.1 C36.5,58.6 36.6,57.6 36.1,57 C35.6,56.3 34.7,56.2 34,56.8 Z" id="Shape"></path>
            </g>
        </g>
    </g>
</svg>