<svg width="59px" height="76px" viewBox="0 0 59 76" version="1.1" xmlns="http://www.w3.org/2000/svg" xmlns:xlink="http://www.w3.org/1999/xlink">
    <title>jill</title>
    <g id="Page-1" stroke="none" stroke-width="1" fill="none" fill-rule="evenodd">
        <g id="Desktop" transform="translate(-27.000000, -27.000000)" fill-rule="nonzero">
            <g id="jill" transform="translate(27.000000, 27.000000)">
                <circle id="Oval" cx="20.1" cy="42.7" r="2.4"></circle>
                <circle id="Oval" cx="39.9" cy="42.7" r="2.4"></circle>
                <path d="M30.1,0.7 C13.7,0.7 0.9,12.3 0.9,27 L0.9,59.6 C0.9,63.3 2.7,66.7 5.8,68.7 C8.9,70.7 12.8,71.1 16.1,69.6 L16.6,69.4 C17.2,70.1 21.7,75.3 25.8,75.3 L34,75.3 C38,75.3 42.3,70.6 43.2,69.5 L43.8,69.8 C45.2,70.4 46.6,70.7 48.1,70.7 C50.2,70.7 52.3,70.1 54.1,68.9 C57.2,66.9 59,63.5 59,59.8 L59,27 C59.1,12.3 46.4,0.7 30.1,0.7 Z M30.1,4.6 C43,4.6 53.3,12.8 55.1,23.8 C55,23.8 54.8,23.8 54.7,23.8 L53,23.8 C47.3,23.8 41.6,22.9 36.2,21.1 L26.6,17.9 C25,17.4 23.3,17.9 22.3,19.2 C21.3,20.5 21.2,22.3 22.1,23.7 C22.1,23.7 22.1,23.7 22.1,23.8 C22.1,23.8 22,23.8 22,23.8 C22,23.8 18,23.8 13.1,22.3 C9.4,21.2 6.2,20 6.2,20 C6.2,20 6.1,20 6.1,20 C9.3,10.9 18.7,4.6 30.1,4.6 Z M7.9,65.6 C5.9,64.3 4.7,62.1 4.7,59.7 L4.7,27 C4.7,25.8 4.8,24.7 5,23.6 C5.4,23.7 6,24 7,24.3 L7,53.6 C7,55.8 7.8,58.1 9.1,59.8 L14.2,66.3 C12.1,67.1 9.8,66.8 7.9,65.6 Z M34.1,71.5 L25.9,71.5 C24.1,71.5 21.1,68.9 19.6,67 L12.1,57.4 C11.2,56.3 10.8,54.9 10.8,53.5 L10.8,25.5 C11.2,25.6 11.5,25.7 11.9,25.8 C17.3,27.4 21.7,27.4 21.9,27.4 C23.3,27.4 24.6,26.6 25.3,25.4 C26,24.1 25.9,22.6 25.2,21.4 C25.2,21.4 25.2,21.3 25.2,21.3 C25.2,21.2 25.3,21.3 25.3,21.3 L34.9,24.5 C39.5,26 44.3,27 49.2,27.3 L49.2,53.5 C49.2,54.9 48.7,56.3 47.9,57.4 L40.5,67 C39.3,68.4 36.1,71.5 34.1,71.5 Z M52.1,65.7 C50.2,67 47.9,67.2 45.8,66.4 L50.9,59.8 C52.3,58 53,55.8 53,53.6 L53,27.6 L54.6,27.6 C54.8,27.6 55,27.6 55.2,27.5 L55.2,59.9 C55.3,62.2 54.1,64.3 52.1,65.7 Z" id="Shape"></path>
                <path d="M25.9,39.5 L25.9,49.2 C25.9,51.3 27.5,53 29.5,53.2 C29.6,53.2 29.7,53.2 29.8,53.2 C30.8,53.2 31.8,52.8 32.5,52.1 C33.1,51.5 33.1,50.6 32.5,50.1 C31.9,49.5 31,49.5 30.5,50.1 C30.4,50.2 30.1,50.4 29.7,50.4 C29.2,50.4 28.8,49.9 28.8,49.3 L28.8,39.6 C28.8,36 25.9,33.2 22.4,33.2 L17.1,33.2 C16.3,33.2 15.7,33.8 15.7,34.6 C15.7,35.4 16.3,36 17.1,36 L22.4,36 C24.3,35.9 25.9,37.5 25.9,39.5 Z" id="Shape"></path>
                <path d="M42.5,33 L36.2,33 C35.4,33 34.8,33.6 34.8,34.4 C34.8,35.2 35.4,35.8 36.2,35.8 L42.5,35.8 C43.3,35.8 43.9,35.2 43.9,34.4 C43.9,33.6 43.3,33 42.5,33 Z" id="Shape"></path>
                <path d="M36.3,57.4 L23.7,57.4 C22.9,57.4 22.3,58 22.3,58.8 C22.3,60.8 25.3,64.5 30.1,64.5 C35.2,64.5 37.9,60.5 37.9,58.8 C37.8,58 37.1,57.4 36.3,57.4 Z M30,61.7 C28.3,61.7 27.1,61 26.2,60.3 L33.8,60.3 C33.1,61 31.8,61.7 30,61.7 Z" id="Shape"></path>
            </g>
        </g>
    </g>
</svg>