<svg width="66px" height="76px" viewBox="0 0 66 76" version="1.1" xmlns="http://www.w3.org/2000/svg" xmlns:xlink="http://www.w3.org/1999/xlink">
    <title>joanne</title>
    <g id="Page-1" stroke="none" stroke-width="1" fill="none" fill-rule="evenodd">
        <g id="Desktop" transform="translate(-155.000000, -234.000000)" fill-rule="nonzero">
            <g id="joanne" transform="translate(155.000000, 234.000000)">
                <path d="M38.7,58.2 L27.3,58.2 C26.5,58.2 25.9,58.8 25.9,59.6 C25.9,63.3 29.1,66.3 32.9,66.3 C36.7,66.3 39.9,63.3 39.9,59.6 C40,58.9 39.4,58.2 38.7,58.2 Z M33,63.6 C31.2,63.6 29.6,62.5 29,61 L37,61 C36.4,62.5 34.8,63.6 33,63.6 Z" id="Shape"></path>
                <path d="M64.3,36.9 C65,35.9 65.9,34.6 65.9,33.1 C65.9,31.6 65,30.3 64.3,29.3 C63.9,28.7 63.5,28.1 63.4,27.7 C63.3,27.3 63.5,26.6 63.7,25.9 C64,24.7 64.4,23.3 63.9,21.9 C63.4,20.5 62.2,19.6 61.1,18.9 C60.5,18.5 59.9,18.1 59.7,17.7 C59.5,17.3 59.4,16.6 59.4,15.9 C59.3,14.6 59.1,13.2 58.2,12 C57.2,10.8 55.8,10.5 54.6,10.1 C53.9,9.9 53.2,9.7 52.9,9.5 C52.6,9.2 52.3,8.5 52,7.9 C51.4,6.7 50.8,5.4 49.5,4.7 C48.2,3.9 46.8,4.1 45.5,4.2 C44.8,4.3 44,4.3 43.7,4.2 C43.3,4.1 42.8,3.5 42.3,3.1 C41.4,2.2 40.3,1.2 38.8,0.9 C37.3,0.6 36,1.2 34.9,1.8 C34.2,2.1 33.6,2.4 33.1,2.4 C32.6,2.4 32,2.1 31.3,1.8 C30.1,1.3 28.8,0.7 27.4,0.9 C25.9,1.2 24.8,2.2 23.9,3.1 C23.4,3.6 22.9,4.1 22.5,4.2 C22.1,4.3 21.3,4.3 20.7,4.2 C19.4,4.1 18,4 16.7,4.7 C15.4,5.5 14.8,6.8 14.2,7.9 C13.9,8.5 13.6,9.2 13.3,9.5 C13,9.8 12.2,10 11.6,10.1 C10.4,10.4 9,10.8 8,12 C7,13.2 6.9,14.6 6.8,15.9 C6.7,16.6 6.7,17.4 6.5,17.7 C6.3,18 5.7,18.5 5.1,18.9 C4.1,19.6 2.9,20.5 2.3,21.9 C1.8,23.3 2.1,24.7 2.5,25.9 C2.7,26.6 2.9,27.3 2.8,27.7 C2.7,28.1 2.3,28.7 1.9,29.3 C1.2,30.3 0.3,31.6 0.3,33.1 C0.3,34.6 1.2,35.9 1.9,36.9 C2.3,37.5 2.7,38.1 2.8,38.5 C2.9,38.9 2.7,39.6 2.5,40.3 C2.2,41.5 1.8,42.9 2.3,44.3 C2.8,45.7 4,46.6 5.1,47.3 C5.7,47.7 6.3,48.1 6.5,48.5 C6.7,48.9 6.8,49.6 6.8,50.3 C6.9,51.6 7.1,53 8,54.2 C9,55.4 10.4,55.7 11.6,56.1 C12,56.2 12.4,56.3 12.8,56.5 C12.9,58.3 13.6,60.1 14.7,61.6 L21.3,70.1 C22,71 25.8,75.3 29.6,75.3 L36.8,75.3 C40.6,75.3 44.4,70.9 45.1,70 L51.6,61.6 C52.7,60.1 53.4,58.3 53.5,56.5 C53.9,56.4 54.3,56.2 54.7,56.1 C55.9,55.8 57.3,55.4 58.3,54.2 C59.3,53 59.4,51.6 59.5,50.3 C59.6,49.6 59.6,48.9 59.8,48.5 C60,48.2 60.6,47.7 61.2,47.3 C62.2,46.6 63.4,45.7 64,44.3 C64.5,42.9 64.2,41.5 63.8,40.3 C63.6,39.6 63.4,38.9 63.5,38.5 C63.5,38.1 63.9,37.5 64.3,36.9 Z M49.7,42.1 C49.4,45.3 46.6,47.8 43.3,47.8 C39.8,47.8 36.9,44.9 36.9,41.4 C36.9,37.9 39.8,35 43.3,35 C46.6,35 49.3,37.5 49.7,40.7 L49.7,42.1 Z M49.7,34.8 C48,33.2 45.8,32.2 43.3,32.2 C39,32.2 35.5,35.1 34.4,39.1 C34,38.9 33.5,38.9 33,38.9 C32.5,38.9 32,39 31.6,39.1 C30.6,35.2 27,32.2 22.7,32.2 C20.2,32.2 17.9,33.2 16.3,34.8 L16.3,33.4 C16.3,31.2 16.8,29.8 17.7,28.9 C19,27.7 21.4,27.3 24.3,27.3 C25.7,27.3 27.2,27.4 28.7,27.4 C30.4,27.5 32.2,27.6 34.1,27.6 C42,27.6 46.9,25.9 49.7,24.3 L49.7,34.8 Z M29.2,41.4 C29.2,44.9 26.3,47.8 22.8,47.8 C19.3,47.8 16.4,44.9 16.4,41.4 C16.4,37.9 19.3,35 22.8,35 C26.3,35 29.2,37.8 29.2,41.4 Z M48.6,59.4 L42.1,67.8 C40.8,69.4 38.1,71.7 36.6,71.7 L29.4,71.7 C27.9,71.7 25.3,69.4 24,67.8 L17.4,59.4 C16.7,58.5 16.3,57.3 16.3,56.1 L16.3,48 C18,49.6 20.2,50.6 22.7,50.6 C25.2,50.6 27.4,49.6 29.1,48 L29,53.2 C29,53.6 29.1,53.9 29.4,54.2 C30.4,55.2 31.6,55.7 33,55.7 C34.4,55.7 35.6,55.2 36.6,54.2 C37.1,53.7 37.1,52.8 36.6,52.3 C36.1,51.8 35.2,51.8 34.7,52.3 C33.9,53.1 32.7,53.2 31.8,52.6 L32,42 C32.3,41.7 32.7,41.6 33.1,41.6 C33.5,41.6 34,41.8 34.2,42.1 C34.6,46.8 38.5,50.6 43.4,50.6 C45.9,50.6 48.1,49.6 49.8,48 L49.8,56.1 C49.7,57.3 49.3,58.4 48.6,59.4 Z M61.3,34.8 C60.7,35.7 60,36.6 59.8,37.8 C59.6,39 59.9,40.2 60.2,41.2 C60.4,41.9 60.6,42.7 60.5,43.1 C60.4,43.5 59.6,44 59.1,44.4 C58.2,45 57.3,45.7 56.7,46.7 C56.1,47.7 56,48.9 55.9,50 C55.8,50.7 55.7,51.6 55.5,51.9 C55.3,52.2 54.4,52.4 53.7,52.6 C53.6,52.6 53.6,52.6 53.5,52.7 L53.5,20.8 C53.5,20 53,19.4 52.3,19.1 C51.6,18.8 50.8,19 50.3,19.6 C50.3,19.6 46.2,23.9 34.2,23.9 C32.4,23.9 30.7,23.8 29,23.7 C23.3,23.4 18.3,23.2 15.3,26.1 C13.6,27.7 12.8,30.1 12.8,33.3 L12.8,52.5 C12.7,52.5 12.7,52.5 12.6,52.4 C11.9,52.2 11.1,52 10.8,51.7 C10.6,51.4 10.5,50.5 10.4,49.8 C10.3,48.7 10.2,47.6 9.6,46.5 C9,45.5 8,44.8 7.2,44.2 C6.6,43.8 5.9,43.3 5.8,42.9 C5.7,42.6 5.9,41.7 6.1,41 C6.4,40 6.7,38.8 6.5,37.6 C6.3,36.4 5.6,35.5 5,34.6 C4.6,34 4.1,33.3 4.1,32.9 C4.1,32.5 4.6,31.8 5,31.2 C5.6,30.3 6.3,29.4 6.5,28.2 C6.7,27 6.4,25.8 6.1,24.8 C5.9,24.1 5.7,23.3 5.8,22.9 C5.9,22.5 6.7,22 7.2,21.6 C8.1,21 9,20.3 9.6,19.3 C10.2,18.3 10.3,17.1 10.4,16 C10.5,15.3 10.6,14.4 10.8,14.1 C11,13.8 11.9,13.6 12.6,13.4 C13.6,13.1 14.8,12.8 15.7,12 C16.6,11.2 17.1,10.1 17.6,9.2 C17.9,8.6 18.3,7.8 18.6,7.6 C18.9,7.4 19.8,7.5 20.5,7.5 C21.6,7.6 22.8,7.7 23.9,7.3 C25,6.9 25.9,6.1 26.6,5.3 C27.1,4.8 27.7,4.2 28.1,4.1 C28.4,4 29.2,4.4 29.9,4.7 C30.9,5.1 32,5.6 33.2,5.6 C34.4,5.6 35.5,5.1 36.5,4.7 C37.1,4.4 37.9,4 38.3,4.1 C38.7,4.2 39.3,4.8 39.8,5.3 C40.5,6 41.4,6.9 42.5,7.3 C43.6,7.7 44.8,7.6 45.9,7.5 C46.6,7.4 47.5,7.4 47.8,7.6 C48.1,7.8 48.5,8.6 48.8,9.2 C49.3,10.2 49.8,11.2 50.7,12 C51.6,12.8 52.8,13.1 53.8,13.4 C54.5,13.6 55.3,13.8 55.6,14.1 C55.8,14.4 55.9,15.3 56,16 C56.1,17.1 56.2,18.2 56.8,19.3 C57.4,20.3 58.4,21 59.2,21.6 C59.8,22 60.5,22.5 60.6,22.9 C60.7,23.2 60.5,24.1 60.3,24.8 C60,25.8 59.7,27 59.9,28.2 C60.1,29.4 60.8,30.3 61.4,31.2 C61.8,31.8 62.3,32.5 62.3,32.9 C62.2,33.5 61.7,34.3 61.3,34.8 Z" id="Shape"></path>
                <circle id="Oval" cx="22.7" cy="42.8" r="1.5"></circle>
                <path d="M19,40.6 C19.5,41.1 20.4,41.1 20.9,40.6 C21.9,39.6 23.5,39.6 24.5,40.6 C24.8,40.9 25.1,41 25.5,41 C25.9,41 26.2,40.9 26.5,40.6 C27,40.1 27,39.2 26.5,38.7 C24.4,36.6 21.1,36.6 19,38.7 C18.5,39.2 18.5,40.1 19,40.6 Z" id="Shape"></path>
                <circle id="Oval" cx="43.3" cy="42.8" r="1.5"></circle>
                <path d="M39.6,38.7 C39.1,39.2 39.1,40.1 39.6,40.6 C40.1,41.1 41,41.1 41.5,40.6 C42.5,39.6 44.1,39.6 45.1,40.6 C45.4,40.9 45.7,41 46.1,41 C46.5,41 46.8,40.9 47.1,40.6 C47.6,40.1 47.6,39.2 47.1,38.7 C45,36.6 41.6,36.6 39.6,38.7 Z" id="Shape"></path>
            </g>
        </g>
    </g>
</svg>