<svg viewBox="0 0 56 76" version="1.1" xmlns="http://www.w3.org/2000/svg" xmlns:xlink="http://www.w3.org/1999/xlink">
    <title>marianne</title>
    <g id="Page-1" stroke="none" stroke-width="1" fill="none" fill-rule="evenodd">
        <g id="Desktop" transform="translate(-423.000000, -234.000000)" fill-rule="nonzero">
            <g id="marianne" transform="translate(423.000000, 234.000000)">
                <path d="M28.4,54.8 C29.4,54.8 30.3,55.4 30.3,54.3 C30.3,53.2 29.5,52.4 28.4,52.4 C27.4,52.4 26.5,53.2 26.5,54.3 C26.5,55.4 27.4,54.8 28.4,54.8 Z" id="Shape"></path>
                <circle id="Oval" cx="19.6" cy="47.7" r="1.9"></circle>
                <circle id="Oval" cx="37" cy="47.7" r="1.9"></circle>
                <path d="M30.9,59.5 C30.2,59.6 29.3,59.7 28.4,59.7 C27.5,59.7 26.7,59.6 25.9,59.5 C24.3,59.3 23.2,59.2 22.4,59.9 C22,60.3 21.8,60.8 21.8,61.3 C21.8,63.4 24.9,66.9 28.3,66.9 C31.8,66.9 34.8,63.4 34.8,61.3 C34.8,60.7 34.6,60.2 34.2,59.9 C33.6,59.2 32.4,59.4 30.9,59.5 Z M28.4,64.4 C26.7,64.4 25.2,62.9 24.7,61.9 C25,61.9 25.4,62 25.7,62 C26.5,62.1 27.4,62.2 28.4,62.2 C29.4,62.2 30.3,62.1 31.1,62 C31.4,62 31.8,61.9 32.1,61.9 C31.6,62.9 30.1,64.4 28.4,64.4 Z" id="Shape"></path>
                <path d="M53.2,52.8 C54.7,51.2 55.6,48.8 55.6,46.1 C55.6,41.4 53,37.7 49.5,37.5 L49.5,33.9 C49.5,25.8 44.9,18.7 38.2,15.2 C40.8,14.2 42.6,11.7 42.6,8.7 L42.6,7.6 C42.6,3.8 39.5,0.7 35.7,0.7 L21.2,0.7 C17.4,0.7 14.3,3.8 14.3,7.6 L14.3,8.7 C14.3,11.6 16.1,14.2 18.7,15.2 C12,18.7 7.4,25.8 7.4,33.9 L7.4,37.5 C4,37.7 1.3,41.4 1.3,46.1 C1.3,48.6 2.1,50.8 3.3,52.4 C1.6,53.1 0.5,54.7 0.5,56.6 C0.5,57.7 0.9,58.7 1.5,59.4 C0.9,60.2 0.5,61.2 0.5,62.2 C0.5,64.7 2.5,66.7 5,66.7 C7.5,66.7 9.5,64.7 9.5,62.2 C9.5,61.8 9.4,61.3 9.3,60.9 C9.6,61.4 9.9,61.8 10.2,62.3 L16.2,69.9 C16.7,70.5 20.8,75.3 24.7,75.3 L32.2,75.3 C36.1,75.3 40.2,70.5 40.7,69.9 L46.1,62.9 C46.4,65.1 48.3,66.7 50.6,66.7 C53.1,66.7 55.1,64.7 55.1,62.2 C55.1,61.1 54.7,60.1 54.1,59.4 C54.7,58.6 55.1,57.6 55.1,56.6 C55.2,55 54.4,53.6 53.2,52.8 Z M49.5,56.5 C49.5,55.9 50,55.4 50.6,55.4 C51.2,55.4 51.7,55.9 51.7,56.5 C51.7,57.1 51.2,57.6 50.6,57.6 C50,57.7 49.5,57.2 49.5,56.5 Z M52.1,46.1 C52.1,49 50.7,51 49.4,51.2 L49.4,40.9 C50.8,41.2 52.1,43.2 52.1,46.1 Z M32.1,4.1 C32.7,5 33.7,7.8 33.7,12.3 L23.1,12.3 C23.2,7.8 24.1,5 24.7,4.1 L32.1,4.1 Z M39.2,7.6 L39.2,8.7 C39.2,10.4 38,11.9 36.3,12.2 C36.2,9.6 35.9,6.4 34.9,4.1 L35.6,4.1 C37.6,4.1 39.2,5.7 39.2,7.6 Z M17.7,7.6 C17.7,5.6 19.3,4.1 21.2,4.1 L21.9,4.1 C21,6.4 20.6,9.7 20.5,12.2 C18.9,11.9 17.6,10.4 17.6,8.7 L17.6,7.6 L17.7,7.6 Z M28.4,16.2 C38.1,16.2 46.1,24.1 46.1,33.9 L46.1,34.6 C43,31.8 36.6,27.2 26.6,25.6 C25.9,25.5 25.3,25.9 25.2,26.6 C25.2,26.7 22.6,36.5 10.8,36.7 L10.8,33.9 C10.8,24.2 18.7,16.2 28.4,16.2 Z M3.9,56.5 C3.9,55.9 4.4,55.4 5,55.4 C5.6,55.4 6.1,55.9 6.1,56.5 C6.1,57.1 5.6,57.6 5,57.6 C4.4,57.7 3.9,57.2 3.9,56.5 Z M7.4,40.9 L7.4,51.2 C6.1,51 4.7,48.9 4.7,46.1 C4.7,43.3 6.1,41.2 7.4,40.9 Z M5,63.3 C4.4,63.3 3.9,62.8 3.9,62.2 C3.9,61.6 4.4,61.1 5,61.1 C5.6,61.1 6.1,61.6 6.1,62.2 C6.1,62.8 5.6,63.3 5,63.3 Z M38.1,67.8 C37,69.2 34.1,72 32.2,72 L24.7,72 C23.1,72 20.3,69.6 18.9,67.9 L13,60.3 C11.6,58.5 10.8,56.3 10.8,54 L10.8,39.2 C21.9,39 26.1,31.3 27.2,28.3 C38.8,30.5 44.9,36.9 46.1,38.2 L46.1,53.9 C46.1,56.2 45.3,58.4 43.9,60.2 L38.1,67.8 Z M50.6,63.3 C50,63.3 49.5,62.8 49.5,62.2 C49.5,61.6 50,61.1 50.6,61.1 C51.2,61.1 51.7,61.6 51.7,62.2 C51.7,62.8 51.2,63.3 50.6,63.3 Z" id="Shape"></path>
                <path d="M24,47.6 C24.7,47.6 25.3,47 25.3,46.3 C25.3,43.1 22.7,40.6 19.6,40.6 C16.4,40.6 13.9,43.2 13.9,46.3 C13.9,47 14.5,47.6 15.2,47.6 C15.9,47.6 16.5,47 16.5,46.3 C16.5,44.6 17.9,43.1 19.7,43.1 C21.5,43.1 22.9,44.5 22.9,46.3 C22.7,47.1 23.3,47.6 24,47.6 Z" id="Shape"></path>
                <path d="M37,40.6 C33.8,40.6 31.3,43.2 31.3,46.3 C31.3,47 31.9,47.6 32.6,47.6 C33.3,47.6 33.9,47 33.9,46.3 C33.9,44.6 35.3,43.1 37.1,43.1 C38.8,43.1 40.3,44.5 40.3,46.3 C40.3,47 40.9,47.6 41.6,47.6 C42.3,47.6 42.9,47 42.9,46.3 C42.7,43.2 40.2,40.6 37,40.6 Z" id="Shape"></path>
            </g>
        </g>
    </g>
</svg>