<svg viewBox="0 0 78 76" version="1.1" xmlns="http://www.w3.org/2000/svg" xmlns:xlink="http://www.w3.org/1999/xlink">
    <!-- Generator: Sketch 47.1 (45422) - http://www.bohemiancoding.com/sketch -->
    <title>matilda</title>
    <g id="Page-1" stroke="none" stroke-width="1" fill="none" fill-rule="evenodd">
        <g id="Desktop" transform="translate(-53.000000, -234.000000)" fill-rule="nonzero">
            <g id="matilda" transform="translate(53.000000, 234.000000)">
                <path d="M40.1,54.7 C41.5,54.7 42.9,54.2 43.9,53.1 C44.4,52.6 44.4,51.7 43.9,51.2 C43.4,50.7 42.5,50.7 42,51.2 C41.1,52.1 39.7,52.2 38.7,51.5 L38.7,39.7 C38.7,38.9 38.1,38.3 37.3,38.3 C36.5,38.3 35.9,38.9 35.9,39.7 L35.9,52.2 C35.9,52.6 36,52.9 36.3,53.2 C37.3,54.2 38.7,54.7 40.1,54.7 Z" id="Shape"></path>
                <path d="M45,57.1 C43.9,58.1 42,58.7 39.9,58.7 C37.9,58.7 35.9,58.1 34.8,57.1 C34.2,56.6 33.4,56.6 32.9,57.2 C32.4,57.8 32.4,58.6 33,59.1 C34.6,60.6 37.1,61.4 39.9,61.4 C42.6,61.4 45.2,60.5 46.8,59.1 C47.4,58.6 47.4,57.7 46.9,57.2 C46.4,56.6 45.5,56.6 45,57.1 Z" id="Shape"></path>
                <path d="M31.7,39.2 C32.4,39.4 33.2,38.9 33.3,38.2 C33.4,37.5 33,36.7 32.3,36.6 C31.1,36.3 29.8,36.5 28.6,37.1 C27.4,37.7 26.5,38.7 26.1,39.8 C25.8,40.5 26.2,41.3 26.9,41.6 C27.1,41.7 27.2,41.7 27.4,41.7 C27.9,41.7 28.5,41.4 28.7,40.8 C28.9,40.3 29.4,39.8 30,39.5 C30.5,39.1 31.1,39 31.7,39.2 Z" id="Shape"></path>
                <path d="M53.8,39.8 C53.3,38.6 52.4,37.7 51.3,37.1 C50.1,36.5 48.8,36.3 47.6,36.6 C46.9,36.8 46.4,37.5 46.6,38.2 C46.8,38.9 47.5,39.4 48.2,39.2 C48.8,39.1 49.4,39.2 50,39.5 C50.6,39.8 51,40.3 51.3,40.8 C51.5,41.3 52,41.7 52.6,41.7 C52.8,41.7 52.9,41.7 53.1,41.6 C53.7,41.3 54,40.5 53.8,39.8 Z" id="Shape"></path>
                <circle id="Oval" cx="30.8" cy="44.2" r="1.4"></circle>
                <circle id="Oval" cx="49.1" cy="44.2" r="1.4"></circle>
                <path d="M76.9,41.4 L75.8,37.5 C75.5,36.4 75.5,35.3 75.9,34.3 C76.9,31.8 76.6,28.9 75.2,26.6 L71.6,20.7 C71.5,20.5 71.3,20.2 71.2,20 L68.1,12.6 C67.6,11.4 66.8,10.3 65.9,9.4 L62.2,6.1 C61.7,5.7 61.2,5.3 60.6,5 L55.7,2.3 C53.8,1.2 51.5,0.9 49.3,1.4 L43.5,2.8 C42.7,3 41.8,3 41,2.8 L34.1,1 C33.4,0.8 32.6,0.7 31.9,0.7 L27.1,0.7 C25,0.7 22.9,1.5 21.3,2.9 L18.5,5.3 C18.3,5.4 18.1,5.6 18,5.7 L9.5,11.3 C7,12.9 5.6,15.7 5.6,18.6 L5.6,26.9 C5.6,27.5 5.5,28.1 5.3,28.7 L1.4,39.2 C0.5,41.6 0.7,44.2 1.9,46.4 L7.9,57.7 C9,59.7 10.8,61.2 13,61.9 L23.4,65.1 L26.9,69.6 C27.4,70.2 31.8,75.3 35.9,75.3 L43.9,75.3 C48,75.3 52.4,70.2 53,69.5 L56.6,64.8 L72.8,55.5 C75.5,53.9 77.2,51 77.2,47.9 L77.2,43.7 C77.2,43 77.1,42.2 76.9,41.4 Z M17.1,48.4 C17.1,49.1 16.6,49.6 15.9,49.6 C15.2,49.6 14.7,49.1 14.7,48.4 C14.7,47.7 15.2,47.2 15.9,47.2 C16.6,47.2 17.1,47.8 17.1,48.4 Z M64.7,48.4 C64.7,49.1 64.2,49.6 63.5,49.6 C62.8,49.6 62.3,49.1 62.3,48.4 C62.3,47.7 62.8,47.2 63.5,47.2 C64.2,47.2 64.7,47.8 64.7,48.4 Z M62.3,43.6 L62.3,37.5 C63.9,37.6 65.1,38.9 65.1,40.5 C65.1,42.1 63.8,43.5 62.3,43.6 Z M17.6,43.6 C16,43.5 14.8,42.2 14.8,40.6 C14.8,39 16,37.7 17.6,37.6 L17.6,43.6 Z M50.1,67.3 C48.9,68.7 45.8,71.7 43.9,71.7 L35.9,71.7 C34.2,71.7 31.2,69.1 29.8,67.3 L23.5,59.3 C22,57.4 21.2,55 21.2,52.6 L21.2,41.9 C21.2,31.6 29.6,23.2 39.9,23.2 C50.2,23.2 58.6,31.6 58.6,41.9 L58.6,52.7 C58.6,55.1 57.8,57.5 56.3,59.3 L53.9,62.4 C53.9,62.4 53.9,62.4 53.9,62.4 L50.1,67.3 Z M23.1,27.2 C26.1,21 32.5,16.7 39.9,16.7 C47.3,16.7 53.7,21 56.7,27.2 C52.6,22.5 46.6,19.6 39.9,19.6 C33.2,19.6 27.2,22.5 23.1,27.2 Z M73.6,48 C73.6,49.8 72.6,51.5 71,52.4 L61.2,58 C61.8,56.4 62.2,54.7 62.3,53 C62.7,53.1 63.1,53.2 63.5,53.2 C66.2,53.2 68.3,51 68.3,48.4 C68.3,47.1 67.8,45.9 66.9,45.1 C68,43.9 68.6,42.3 68.6,40.6 C68.6,37 65.7,34 62.1,33.9 C61.5,22.2 51.8,13 39.9,13 C28,13 18.4,22.2 17.6,33.9 C14,34 11.1,37 11.1,40.6 C11.1,42.2 11.7,43.7 12.6,44.8 C11.6,45.7 11,47 11,48.4 C11,51.1 13.2,53.2 15.8,53.2 C16.4,53.2 17,53.1 17.5,52.9 C17.5,55.4 18.3,57.9 19.6,60.1 L14,58.4 C12.7,58 11.6,57.1 11,55.9 L5,44.6 C4.3,43.3 4.2,41.8 4.7,40.4 L8.6,30 C9,29 9.2,28 9.2,26.9 L9.2,18.6 C9.2,16.9 10.1,15.3 11.5,14.3 L20,8.7 C20.3,8.5 20.6,8.2 20.9,8 L23.7,5.6 C24.6,4.8 25.8,4.3 27.1,4.3 L31.9,4.3 C32.3,4.3 32.8,4.4 33.2,4.5 L40.1,6.3 C41.5,6.7 43,6.7 44.4,6.3 L50.2,4.9 C51.5,4.6 52.8,4.8 53.9,5.4 L58.8,8.1 C59.1,8.3 59.4,8.5 59.7,8.8 L63.4,12.1 C64,12.6 64.4,13.2 64.7,13.9 L67.8,21.3 C68,21.7 68.2,22.1 68.4,22.5 L72,28.4 C72.8,29.7 73,31.4 72.4,32.9 C71.7,34.7 71.6,36.6 72.2,38.5 L73.3,42.4 C73.4,42.9 73.5,43.3 73.5,43.8 L73.5,48 L73.6,48 Z" id="Shape"></path>
            </g>
        </g>
    </g>
</svg>