<svg width="62px" height="76px" viewBox="0 0 62 76" version="1.1" xmlns="http://www.w3.org/2000/svg" xmlns:xlink="http://www.w3.org/1999/xlink">
    <title>sam</title>
    <g id="Page-1" stroke="none" stroke-width="1" fill="none" fill-rule="evenodd">
        <g id="Desktop" transform="translate(-160.000000, -126.000000)" fill-rule="nonzero">
            <g id="sam" transform="translate(160.000000, 126.000000)">
                <path d="M55.1,25.1 C55.1,25.1 55.1,25.1 55.1,25.1 L55.1,23.5 C55.1,10.5 44.8,0.7 31,0.7 C17.2,0.7 6.9,10.5 6.9,23.5 L6.9,25.1 C6.9,25.1 6.9,25.1 6.9,25.1 C3.1,25.1 0.1,28.2 0.1,31.9 L0.1,36.3 C0.1,40.1 3.2,43.1 6.9,43.1 C6.9,43.1 6.9,43.1 6.9,43.1 L6.9,52.6 C6.9,54.9 7.7,57.3 9.1,59.1 L17,69.2 C17.5,69.8 22.2,75.4 26.7,75.4 L35.3,75.4 C39.8,75.4 44.5,69.9 45.1,69.2 L52.9,59.2 C54.3,57.4 55.1,55.1 55.1,52.7 L55.1,43.2 C55.1,43.2 55.1,43.2 55.1,43.2 C58.9,43.2 61.9,40.1 61.9,36.4 L61.9,32 C61.9,28.2 58.8,25.1 55.1,25.1 Z M31,4.7 C41.1,4.7 49,11 50.7,19.8 C49.8,18.4 48.6,17 47.1,15.6 C44.6,13.2 40.9,12.1 37.3,12.6 C33.1,13.3 28.9,13.3 24.8,12.6 L23.9,12.5 C20.9,12 18,12.9 15.7,14.9 C13.8,16.6 12.4,18.2 11.4,19.7 C13.1,10.9 21,4.7 31,4.7 Z M6.9,39.1 C5.3,39.1 4.1,37.8 4.1,36.3 L4.1,31.9 C4.1,30.3 5.4,29.1 6.9,29.1 C6.9,29.1 6.9,29.1 6.9,29.1 L6.9,39.1 C6.9,39.1 6.9,39.1 6.9,39.1 Z M49.7,56.7 L46.2,61.2 L45.3,58.1 C43,51.4 37.3,50.7 34.5,51.4 C33.7,51.6 33.2,52.4 33.4,53.2 C33.6,54 34.4,54.5 35.2,54.3 C35.7,54.2 40.6,53.3 42.5,59 L43.9,64.1 L41.9,66.6 C41.2,67.4 40.3,68.4 39.3,69.2 L39.3,66.5 C39.3,65.7 38.6,65 37.8,65 C37,65 36.3,65.7 36.3,66.5 L36.3,71.1 C35.9,71.2 35.6,71.3 35.3,71.3 L34.8,71.3 L34.8,66.5 C34.8,65.7 34.1,65 33.3,65 C32.5,65 31.8,65.7 31.8,66.5 L31.8,71.3 L30.3,71.3 L30.3,66.5 C30.3,65.7 29.6,65 28.8,65 C28,65 27.3,65.7 27.3,66.5 L27.3,71.3 L26.8,71.3 C26.5,71.3 26.2,71.2 25.8,71.1 L25.8,66.5 C25.8,65.7 25.1,65 24.3,65 C23.5,65 22.8,65.7 22.8,66.5 L22.8,69.2 C21.8,68.4 20.9,67.4 20.2,66.7 L18.2,64.1 L19.6,59.1 C21.5,53.4 26.3,54.2 26.9,54.3 C27.7,54.5 28.5,54 28.7,53.2 C28.9,52.4 28.4,51.6 27.6,51.4 C24.9,50.8 19.1,51.4 16.8,58.2 L16,61.2 L12.5,56.7 C11.6,55.6 11.1,54.1 11.1,52.7 L11.1,27.5 C11.1,27.4 11.1,27.4 11.1,27.3 C11.1,27.3 11.8,22.5 17.8,17.1 C19.3,15.7 21.4,15.1 23.5,15.4 L24.4,15.5 C28.9,16.2 33.4,16.2 37.9,15.5 C40.6,15.1 43.3,15.9 45.2,17.7 C50.2,22.4 51.2,27.4 51.2,27.4 C51.2,27.4 51.2,27.5 51.2,27.5 L51.2,52.7 C51.1,54.1 50.6,55.5 49.7,56.7 Z M57.9,36.3 C57.9,37.9 56.6,39.1 55.1,39.1 C55.1,39.1 55.1,39.1 55.1,39.1 L55.1,29.1 C55.1,29.1 55.1,29.1 55.1,29.1 C56.7,29.1 57.9,30.4 57.9,31.9 L57.9,36.3 Z" id="Shape"></path>
                <circle id="Oval" cx="19.6" cy="36" r="2.1"></circle>
                <circle id="Oval" cx="42.4" cy="36" r="2.1"></circle>
                <path d="M46,28.5 C43.3,27.6 40.6,28 38.3,29.6 C37.6,30.1 37.5,31 38,31.7 C38.3,32.1 38.8,32.3 39.2,32.3 C39.5,32.3 39.8,32.2 40.1,32 C41.6,30.9 43.3,30.6 45.1,31.3 C45.9,31.6 46.7,31.2 47,30.4 C47.2,29.6 46.8,28.8 46,28.5 Z" id="Shape"></path>
                <path d="M24.1,29.7 C21.8,28 19.1,27.6 16.4,28.6 C15.6,28.9 15.2,29.7 15.5,30.5 C15.8,31.3 16.6,31.7 17.4,31.4 C19.2,30.8 20.8,31 22.4,32.1 C22.7,32.3 23,32.4 23.3,32.4 C23.8,32.4 24.2,32.2 24.5,31.8 C24.9,31.1 24.8,30.1 24.1,29.7 Z" id="Shape"></path>
                <path d="M27.1,56.1 C26.4,55.7 25.5,55.9 25,56.6 C24.6,57.3 24.8,58.2 25.5,58.7 C26.9,59.6 28.9,60.1 31,60.1 C33.1,60.1 35,59.6 36.5,58.7 C37.2,58.3 37.4,57.4 37,56.6 C36.6,55.8 35.7,55.7 34.9,56.1 C33.9,56.7 32.5,57 31,57 C29.5,57.1 28,56.7 27.1,56.1 Z" id="Shape"></path>
                <path d="M35,33.7 C34.9,32.9 34.2,32.3 33.4,32.3 C32.6,32.4 32,33.1 32,33.9 L33,46.8 C32.9,47.2 31.8,47.8 31,47.8 C30.2,47.8 29.1,47.1 29,46.8 L30,33.9 C30.1,33.1 29.4,32.4 28.6,32.3 C27.8,32.2 27.1,32.9 27,33.7 L26,46.7 C26,46.7 26,46.8 26,46.8 C26,49.2 29,50.8 31,50.8 C33,50.8 36,49.2 36,46.8 C36,46.8 36,46.7 36,46.7 L35,33.7 Z" id="Shape"></path>
            </g>
        </g>
    </g>
</svg>