<svg width="78px" height="74px" viewBox="0 0 78 74" version="1.1" xmlns="http://www.w3.org/2000/svg" xmlns:xlink="http://www.w3.org/1999/xlink">
    <title>susan</title>
    <g id="Page-1" stroke="none" stroke-width="1" fill="none" fill-rule="evenodd">
        <g id="Desktop" transform="translate(-102.000000, -29.000000)" fill-rule="nonzero">
            <g id="susan" transform="translate(102.000000, 29.000000)">
                <path d="M40.2,58.2 C39.8,58.6 39,58.6 38.6,58.2 C38.1,57.7 37.2,57.7 36.7,58.2 C36.2,58.7 36.2,59.6 36.7,60.1 C37.4,60.8 38.4,61.2 39.4,61.2 C40.4,61.2 41.3,60.8 42.1,60.1 C42.6,59.6 42.6,58.7 42.1,58.2 C41.5,57.7 40.7,57.7 40.2,58.2 Z" id="Shape"></path>
                <path d="M70,28.6 C66.6,27.8 66,24.9 65.6,21.9 C65.4,20 65.1,18.5 64.7,17.1 C59.1,-2.8 40.8,0.6 38.9,1 C37,0.6 18.6,-3 13.2,16.9 C12.8,18.3 12.5,19.8 12.3,21.7 C12,24.6 11.3,27.5 8,28.2 C5.3,28.7 0.2,31.6 0.4,38.8 C0.6,46.4 6.8,49.3 7.9,49.8 C8.2,50 9.7,51 9.7,52.9 C9.7,55.9 10.1,59.7 12.9,62.4 C15.4,64.7 19.2,65.7 24.6,65.4 L26.5,67.9 C27,68.5 31.1,73.4 35.1,73.4 L42.7,73.4 C46.7,73.4 50.9,68.5 51.4,67.9 L53.2,65.6 C54,65.7 54.8,65.7 55.5,65.7 C59.8,65.7 63,64.7 65.1,62.7 C68,60 68.3,56.2 68.3,53.2 C68.3,51.3 69.8,50.3 70.1,50.1 C71.2,49.6 77.4,46.7 77.5,39.1 C77.7,32 72.6,29.1 70,28.6 Z M48.7,65.7 C47.6,67.1 44.6,69.9 42.8,69.9 L35.2,69.9 C33.6,69.9 30.8,67.5 29.4,65.8 L22.5,56.9 C21.7,55.9 21.3,54.6 21.3,53.3 L21.3,39.4 L24,39.4 C24.6,42.3 27.2,44.5 30.3,44.5 C33.4,44.5 35.9,42.4 36.6,39.5 C38,38.3 40.1,38.3 41.5,39.5 C42.2,42.4 44.7,44.5 47.8,44.5 C50.9,44.5 53.5,42.3 54.1,39.4 L56.9,39.4 L56.9,53.3 C56.9,54.6 56.5,55.9 55.7,56.9 L48.7,65.7 Z M27,30.6 C27.1,30.6 27.2,30.5 27.3,30.5 C28.8,29.6 31.8,29.6 33.3,30.5 C33.9,30.9 34.7,30.7 35.1,30.1 C35.5,29.5 35.3,28.7 34.7,28.3 C33.7,27.7 32.4,27.3 31,27.2 C32.3,25.8 33.6,24.3 34.8,22.5 C37.7,18.4 39.4,14.4 40.2,12.4 C49.5,13 56.8,20.7 56.8,30.1 L56.8,36.7 L54,36.7 C53.4,33.8 50.8,31.6 47.7,31.6 C44.7,31.6 42.2,33.7 41.5,36.4 C39.9,35.8 38.1,35.8 36.5,36.4 C35.8,33.6 33.3,31.6 30.3,31.6 C27.2,31.6 24.6,33.8 24,36.7 L21.2,36.7 L21.2,33.7 C23.2,33 25.1,32 27,30.6 Z M43.9,38.1 C43.9,36 45.6,34.3 47.7,34.3 C49.8,34.3 51.5,36 51.5,38.1 C51.5,40.2 49.8,41.9 47.7,41.9 C45.6,41.9 43.9,40.2 43.9,38.1 Z M30.3,41.9 C28.2,41.9 26.5,40.2 26.5,38.1 C26.5,36 28.2,34.3 30.3,34.3 C32.4,34.3 34.1,36 34.1,38.1 C34.1,40.2 32.4,41.9 30.3,41.9 Z M68.8,46.9 C68.7,46.9 68.7,47 68.6,47 C68.4,47.1 64.8,49 64.9,53.3 C64.9,55.8 64.7,58.5 62.9,60.2 C61.5,61.5 59.2,62.2 56.1,62.2 L58.5,59.1 C59.8,57.5 60.5,55.4 60.5,53.4 L60.5,30.1 C60.5,18.3 50.9,8.8 39.2,8.8 C38.9,8.8 38.5,8.9 38.3,9.1 C38.3,9.1 38.3,9.1 38.3,9.1 C37.9,9.3 37.7,9.7 37.5,10.1 C37.4,10.3 30.6,30.4 15.5,31.5 C14.5,31.6 13.8,32.4 13.9,33.4 C14,34.3 14.7,35 15.7,35 C15.7,35 15.8,35 15.8,35 C16.5,34.9 17.2,34.8 17.9,34.7 L17.9,53.3 C17.9,55.4 18.6,57.4 19.9,59.1 L22.2,62 C19.2,61.9 17,61.2 15.7,59.9 C13.9,58.2 13.6,55.4 13.6,53 C13.6,48.8 10,46.8 9.8,46.7 C9.7,46.7 9.7,46.6 9.6,46.6 C9.4,46.5 4.4,44.5 4.2,38.8 C4.1,32.9 8.4,31.8 9,31.7 C15.1,30.3 15.8,24.6 16.1,22.1 C16.3,20.4 16.6,19.1 16.9,17.8 C21.6,0.4 37.7,4.3 38.4,4.5 C38.4,4.5 38.5,4.5 38.5,4.5 L38.8,4.6 C39,4.6 39.3,4.6 39.5,4.6 L39.8,4.5 C39.8,4.5 39.9,4.5 39.9,4.5 C40.6,4.3 56.7,0.5 61.6,18 C61.9,19.2 62.2,20.6 62.4,22.3 C62.7,24.7 63.4,30.5 69.6,31.9 C69.8,31.9 74.5,32.9 74.4,39 C74,44.8 69,46.8 68.8,46.9 Z" id="Shape"></path>
                <path d="M37.2,46.4 C38.2,45.4 39.9,45.4 40.8,46.4 C41.1,46.7 41.4,46.8 41.7,46.8 C42,46.8 42.4,46.7 42.6,46.4 C43.1,45.9 43.1,45 42.6,44.5 C40.6,42.5 37.2,42.5 35.2,44.5 C34.7,45 34.7,45.9 35.2,46.4 C35.8,46.9 36.7,46.9 37.2,46.4 Z" id="Shape"></path>
                <path d="M47.7,51.7 C47.4,51 46.6,50.7 45.9,51.1 C45.4,51.3 45.1,51.9 45.1,52.5 C43.4,53.3 41.2,53.8 38.9,53.8 C36.6,53.8 34.4,53.3 32.8,52.5 C32.9,51.9 32.6,51.4 32.1,51.1 C31.4,50.8 30.6,51.1 30.3,51.7 L29.6,53.3 C29.3,54 29.6,54.8 30.2,55.1 C30.4,55.2 30.6,55.2 30.8,55.2 C31.1,55.2 31.4,55.1 31.7,54.9 C33.7,55.9 36.3,56.5 39,56.5 C41.7,56.5 44.3,55.9 46.3,54.9 C46.5,55.1 46.9,55.3 47.2,55.3 C47.4,55.3 47.6,55.3 47.8,55.2 C48.5,54.9 48.8,54.1 48.4,53.4 L47.7,51.7 Z" id="Shape"></path>
                <circle id="Oval" cx="30.5" cy="38.1" r="1.8"></circle>
                <circle id="Oval" cx="47.7" cy="38.1" r="1.8"></circle>
                <path d="M44,30.7 C44.2,30.7 44.5,30.6 44.7,30.5 C45.5,30 46.5,29.8 47.7,29.8 C48.8,29.8 49.9,30.1 50.7,30.5 C51.3,30.9 52.1,30.7 52.5,30.1 C52.9,29.5 52.7,28.7 52.1,28.3 C50.9,27.6 49.4,27.2 47.7,27.2 C46.1,27.2 44.5,27.6 43.3,28.3 C42.7,28.7 42.5,29.5 42.9,30.1 C43.2,30.5 43.6,30.7 44,30.7 Z" id="Shape"></path>
            </g>
        </g>
    </g>
</svg>